<svg viewBox="0 0 98.84 92.89000000000001" xmlns="http://www.w3.org/2000/svg" width="2500" height="2350"><path d="M69.8 29.48a3.194 3.194 0 0 1-4.52.12 3.188 3.188 0 0 1-.13-4.53 3.197 3.197 0 0 1 4.53-.14c1.29 1.22 1.34 3.24.13 4.55m-31.95-7.29a1.6 1.6 0 0 0-2.24.07 1.582 1.582 0 0 0 2.31 2.16c.6-.63.57-1.63-.06-2.23m7.99-3.05c-.79-.74-2.02-.69-2.76.09-.74.79-.7 2.02.09 2.76.78.73 2.02.69 2.76-.09s.7-2.02-.09-2.76m8.59-.62c-.99-.94-2.56-.88-3.5.1-.94 1-.89 2.56.11 3.51 1 .94 2.57.89 3.51-.1.94-1.01.88-2.57-.12-3.51m8.13 2.08c-1.13-1.07-2.89-1-3.94.11-1.06 1.12-1.02 2.88.1 3.94s2.9 1 3.95-.11c1.05-1.12 1.01-2.89-.12-3.94m-31.51 6.93a1.18 1.18 0 0 0-1.66.05 1.174 1.174 0 0 0 1.71 1.61c.44-.47.43-1.22-.05-1.67M72.09 56.6c-.6.63-.58 1.64.05 2.24.65.6 1.65.57 2.25-.07a1.6 1.6 0 0 0-.06-2.24c-.65-.6-1.65-.57-2.24.07m2.02-8.16c-.73.78-.69 2.02.09 2.75.79.75 2.02.7 2.76-.08s.71-2.01-.09-2.76c-.78-.74-2.02-.7-2.76.09m-.62-8.6c-.94 1-.9 2.57.11 3.51 1 .94 2.57.89 3.51-.11.94-.98.89-2.56-.11-3.5s-2.56-.89-3.5.1m-3.01-7.97c-1.06 1.12-1.01 2.89.11 3.94s2.88.99 3.93-.12a2.775 2.775 0 0 0-.11-3.94c-1.11-1.06-2.88-.99-3.93.12m-2.76 31.81c-.44.47-.41 1.22.06 1.66.48.44 1.22.43 1.65-.06.46-.47.44-1.22-.04-1.66-.46-.45-1.21-.43-1.67.05M33.71 67.8a3.21 3.21 0 0 0-.13-4.54 3.206 3.206 0 0 0-4.53.13 3.206 3.206 0 0 0 .13 4.53 3.197 3.197 0 0 0 4.53-.13m-6.94-31.52c.58-.63.57-1.64-.07-2.23-.63-.6-1.63-.57-2.23.06-.61.64-.57 1.63.07 2.23.63.6 1.63.57 2.24-.06m-2.05 8.17c.74-.79.7-2.03-.08-2.76-.79-.74-2.03-.7-2.76.09s-.71 2.01.08 2.75c.78.74 2.02.69 2.76-.07m.62 8.58c.95-.99.9-2.57-.1-3.51a2.482 2.482 0 0 0-3.51.11c-.94.99-.9 2.57.1 3.5 1 .94 2.57.89 3.5-.1M28.35 61c1.06-1.12 1-2.89-.12-3.94-1.12-1.07-2.88-.99-3.94.12a2.805 2.805 0 0 0 .11 3.95c1.13 1.05 2.9.99 3.95-.12m32.64 9.67a1.582 1.582 0 1 0-.06-2.24c-.6.64-.57 1.64.06 2.23m-8 3.06c.78.74 2.02.69 2.76-.09.73-.78.71-2.02-.08-2.75-.8-.74-2.02-.7-2.76.08-.73.78-.69 2.02.09 2.76m-8.62.62c1.01.95 2.57.9 3.5-.1.94-1 .9-2.57-.1-3.5-1-.94-2.57-.89-3.52.1-.93 1-.88 2.57.11 3.5m-8.1-2.07a2.78 2.78 0 0 0 3.93-.11 2.796 2.796 0 0 0-.12-3.95c-1.12-1.05-2.89-1-3.94.13-1.05 1.11-1 2.87.13 3.93m21.11-44.07a2.491 2.491 0 0 1-3.09 1.68 2.48 2.48 0 0 1-1.69-3.1 2.486 2.486 0 0 1 3.09-1.7c1.33.4 2.09 1.79 1.69 3.12M33.46 34.1c-.65-.18-1.33.19-1.53.84-.19.65.19 1.34.84 1.52.64.19 1.33-.17 1.52-.83.2-.65-.19-1.33-.84-1.53m4.34-4.76c-.81-.24-1.65.23-1.89 1.03-.24.81.22 1.65 1.04 1.89.8.24 1.65-.23 1.89-1.03.23-.8-.23-1.65-1.04-1.89m5.54-3.36c-1.04-.3-2.1.29-2.4 1.31-.31 1.02.29 2.09 1.32 2.39 1.01.3 2.09-.27 2.39-1.31.29-1.02-.3-2.1-1.31-2.4m6.15-1.36c-1.17-.35-2.36.32-2.7 1.47s.32 2.36 1.46 2.7a2.18 2.18 0 0 0 2.7-1.47 2.15 2.15 0 0 0-1.46-2.7M30.73 39.99c-.49-.14-1 .14-1.14.62-.14.5.14 1.01.62 1.15.49.14 1-.14 1.14-.63.15-.49-.13-1-.62-1.14m37.26 5.54c-.2.65.18 1.34.84 1.53.66.2 1.34-.18 1.53-.84.19-.64-.18-1.33-.83-1.52s-1.34.18-1.53.83m-1.43-6.16c-.24.82.23 1.66 1.03 1.9.81.24 1.65-.22 1.88-1.03.24-.81-.21-1.65-1.02-1.88-.81-.24-1.66.21-1.89 1.02m-3.36-5.55c-.31 1.04.29 2.1 1.31 2.4 1.03.3 2.09-.3 2.4-1.32s-.28-2.09-1.3-2.39-2.08.29-2.4 1.3m-4.73-4.29c-.35 1.15.33 2.36 1.48 2.7s2.36-.33 2.69-1.48c.34-1.15-.31-2.36-1.47-2.7-1.15-.34-2.36.33-2.7 1.48m9 22.22c-.14.49.14 1.01.61 1.14.5.15 1.01-.13 1.15-.62.15-.48-.13-1-.63-1.15-.47-.13-1 .14-1.14.63M46.25 66.1c.39-1.33-.36-2.72-1.69-3.11-1.32-.38-2.72.37-3.09 1.69-.39 1.34.36 2.71 1.69 3.11 1.32.38 2.72-.38 3.1-1.69M30.85 47.34c.2-.65-.17-1.33-.82-1.53-.65-.19-1.34.19-1.54.84s.18 1.33.84 1.52c.65.2 1.33-.17 1.52-.83m1.44 6.16c.23-.81-.23-1.65-1.03-1.88-.82-.24-1.67.22-1.88 1.03-.23.8.21 1.65 1.02 1.89.8.24 1.65-.23 1.89-1.04m3.35 5.55c.3-1.02-.3-2.11-1.32-2.41-1.03-.3-2.08.29-2.39 1.32-.3 1.02.27 2.09 1.31 2.39 1.04.31 2.1-.28 2.41-1.3m4.71 4.31c.33-1.14-.32-2.36-1.48-2.7-1.16-.33-2.36.32-2.69 1.48-.33 1.14.32 2.35 1.47 2.69s2.36-.32 2.7-1.47m25.02-4.59c.66.19 1.35-.18 1.53-.83a1.25 1.25 0 0 0-.83-1.54c-.65-.18-1.34.19-1.53.84-.19.66.18 1.34.83 1.53m-4.32 4.77c.8.24 1.65-.23 1.88-1.02a1.51 1.51 0 0 0-1.02-1.89c-.81-.24-1.66.23-1.9 1.03-.23.8.24 1.65 1.04 1.89m-5.54 3.35c1.03.3 2.09-.29 2.4-1.31.3-1.01-.28-2.09-1.31-2.39-1.02-.31-2.1.29-2.41 1.31-.3 1.02.3 2.1 1.32 2.4m-6.14 1.36c1.16.34 2.37-.32 2.7-1.46.33-1.15-.31-2.36-1.46-2.7-1.16-.34-2.37.32-2.71 1.47-.33 1.15.33 2.34 1.47 2.69m-5.09-35.43c.52.94.17 2.12-.77 2.63-.96.51-2.12.15-2.64-.8a1.92 1.92 0 0 1 .78-2.62c.95-.51 2.13-.16 2.63.79M34.7 48.02c-.55.3-.75 1-.46 1.55.3.56 1 .76 1.55.45.54-.28.78-.99.46-1.54-.31-.55-.98-.76-1.55-.46m-.18-4.67a1.33 1.33 0 0 0-.54 1.79c.36.65 1.17.89 1.81.54s.89-1.17.54-1.81c-.36-.65-1.16-.88-1.82-.53m1.22-4.48c-.74.4-1.01 1.32-.63 2.06.41.74 1.34 1.02 2.07.62.74-.4 1.02-1.32.62-2.06a1.519 1.519 0 0 0-2.06-.61m2.47-3.89c-.85.45-1.16 1.48-.7 2.32.46.82 1.48 1.14 2.31.69.85-.45 1.16-1.49.71-2.32-.44-.83-1.49-1.16-2.31-.7m-1.9 17.46a.954.954 0 1 0 .91 1.68c.46-.26.63-.84.38-1.29-.27-.45-.84-.64-1.29-.39m22.05-15.88c.3.55.98.76 1.56.47.55-.31.77-1 .46-1.56-.3-.55-.99-.77-1.54-.46-.58.31-.78 1-.48 1.55m-3.88-2.47c.35.65 1.17.88 1.8.53.66-.35.89-1.15.54-1.8-.34-.64-1.16-.89-1.8-.55-.64.36-.89 1.17-.54 1.82M50 32.88c.4.73 1.32 1.01 2.05.61.76-.4 1.02-1.32.63-2.06a1.502 1.502 0 0 0-2.06-.6c-.74.39-1 1.31-.62 2.06m-4.67.18c.45.85 1.49 1.15 2.32.71.83-.45 1.13-1.49.69-2.33a1.71 1.71 0 0 0-2.32-.69c-.84.45-1.13 1.49-.69 2.31m15.93 6.97c.25.47.83.63 1.28.38.46-.24.64-.81.39-1.28s-.81-.64-1.29-.41c-.45.26-.63.85-.38 1.3m-3.28 18.16a1.926 1.926 0 0 0-2.64-.79c-.94.5-1.3 1.68-.78 2.62.51.94 1.69 1.28 2.63.79.94-.53 1.29-1.71.78-2.63m-17.48-1.87c-.3-.55-.99-.75-1.54-.46-.56.29-.76.99-.47 1.54.29.56.99.77 1.55.45.55-.28.75-.98.46-1.53m3.87 2.46a1.328 1.328 0 1 0-2.34 1.26c.34.65 1.15.9 1.8.55.65-.37.89-1.18.54-1.82m4.49 1.21c-.39-.73-1.32-1-2.07-.61-.74.4-1 1.33-.62 2.06.41.75 1.33 1.02 2.07.63a1.51 1.51 0 0 0 .62-2.07m4.67-.2a1.72 1.72 0 0 0-2.33-.69c-.83.44-1.12 1.48-.67 2.32.43.83 1.46 1.15 2.3.69.84-.44 1.14-1.48.7-2.32m10.6-14.92c.56-.32.78-1.02.48-1.56-.31-.55-1-.76-1.54-.46-.57.3-.77 1-.47 1.55.29.55 1 .75 1.52.47m.23 4.65c.65-.35.88-1.16.52-1.8-.34-.65-1.13-.89-1.79-.54-.65.36-.88 1.15-.54 1.81.34.64 1.18.87 1.82.53M63.12 54c.75-.41 1.02-1.32.63-2.07-.4-.73-1.32-1.02-2.07-.62-.75.39-1.01 1.34-.63 2.08.41.73 1.33 1.01 2.06.61m-2.44 3.87c.82-.43 1.14-1.49.69-2.32a1.71 1.71 0 0 0-2.32-.69c-.83.45-1.13 1.49-.69 2.32s1.48 1.14 2.32.69m33.19-6.46c-2.75 0-4.97-2.23-4.97-4.98s2.23-4.96 4.98-4.96 4.97 2.2 4.97 4.97-2.23 4.98-4.98 4.98M74.33 8.51c.32-1.5-.63-2.94-2.11-3.26-1.49-.32-2.94.62-3.26 2.11-.31 1.48.63 2.94 2.11 3.26 1.48.31 2.94-.63 3.26-2.11m9.8 7.02c.29-1.82-.95-3.51-2.75-3.8a3.327 3.327 0 1 0 2.76 3.8m7.89 9.12c.23-2.29-1.41-4.32-3.68-4.56a4.14 4.14 0 0 0-4.56 3.7c-.24 2.28 1.42 4.31 3.68 4.56 2.28.24 4.32-1.42 4.56-3.69m4.9 10.51a4.567 4.567 0 0 0-4.33-4.8 4.566 4.566 0 0 0-4.81 4.32c-.13 2.53 1.81 4.68 4.33 4.81s4.67-1.81 4.81-4.33M51.41 1.99C51.41.88 50.52 0 49.42 0s-2 .89-2 1.99.9 2 2 2 1.99-.89 1.99-2m19.67 80.26c-1.48.31-2.43 1.78-2.12 3.26a2.766 2.766 0 0 0 3.27 2.12 2.757 2.757 0 0 0 2.11-3.27 2.739 2.739 0 0 0-3.26-2.11m9.25-7.67c-1.81.28-3.05 1.99-2.76 3.81s2 3.05 3.8 2.77a3.336 3.336 0 0 0 2.77-3.81 3.32 3.32 0 0 0-3.81-2.76m7.14-10.05a4.141 4.141 0 0 0-3.68 4.55 4.13 4.13 0 0 0 4.55 3.69 4.147 4.147 0 0 0 3.69-4.56 4.146 4.146 0 0 0-4.56-3.69m4.65-11.15a4.566 4.566 0 1 0 .48 9.12 4.56 4.56 0 0 0 4.32-4.8 4.579 4.579 0 0 0-4.8-4.33m-42.7 35.52c-1.11 0-2 .89-2 2s.9 2 2 2 1.99-.89 1.99-2-.89-1.99-1.99-1.99M4.98 51.41c2.74 0 4.96-2.23 4.96-4.98s-2.22-4.96-4.96-4.96S0 43.67 0 46.44s2.23 4.98 4.98 4.98m22.78-40.8c1.49-.32 2.43-1.77 2.12-3.26s-1.77-2.43-3.26-2.11a2.753 2.753 0 0 0-2.12 3.26 2.744 2.744 0 0 0 3.26 2.11m-9.25 7.68c1.82-.29 3.05-1.99 2.76-3.81s-1.99-3.05-3.81-2.76-3.05 1.98-2.76 3.8 1.99 3.06 3.8 2.77m-7.14 10.04a4.138 4.138 0 0 0 3.68-4.56c-.23-2.29-2.29-3.93-4.55-3.7a4.14 4.14 0 0 0-3.69 4.56 4.147 4.147 0 0 0 4.56 3.69M6.71 39.5a4.575 4.575 0 0 0 4.33-4.81c-.12-2.53-2.28-4.46-4.81-4.32-2.5.13-4.46 2.26-4.33 4.8a4.588 4.588 0 0 0 4.81 4.33m17.8 44.87c-.31 1.49.63 2.94 2.11 3.26 1.48.31 2.95-.62 3.26-2.12.31-1.48-.63-2.94-2.12-3.26s-2.94.63-3.26 2.11m-9.79-7.01a3.32 3.32 0 0 0 2.75 3.81c1.82.28 3.52-.95 3.81-2.77a3.34 3.34 0 0 0-2.77-3.81 3.33 3.33 0 0 0-3.8 2.76m-7.89-9.11a4.146 4.146 0 0 0 3.69 4.56 4.13 4.13 0 0 0 4.55-3.69 4.123 4.123 0 0 0-3.68-4.55 4.146 4.146 0 0 0-4.56 3.69M1.9 57.71a4.574 4.574 0 0 0 4.33 4.8c2.53.13 4.69-1.79 4.81-4.32.14-2.52-1.81-4.67-4.33-4.8S2.04 55.2 1.9 57.72M60.36 87.3a2.158 2.158 0 0 0-1.52 2.63 2.148 2.148 0 0 0 2.63 1.51 2.136 2.136 0 0 0 1.52-2.62 2.148 2.148 0 0 0-2.64-1.52m-21.89 0c-1.13-.3-2.31.37-2.62 1.52-.3 1.14.37 2.31 1.52 2.62 1.14.31 2.33-.37 2.63-1.51.31-1.14-.38-2.32-1.53-2.63M63 4.06c.31-1.15-.37-2.31-1.52-2.62-1.14-.31-2.32.37-2.63 1.51-.3 1.15.38 2.32 1.52 2.63s2.32-.37 2.63-1.52M39.99 2.95c-.31-1.15-1.49-1.82-2.63-1.51s-1.82 1.48-1.52 2.62a2.148 2.148 0 0 0 4.15-1.11m42.84 33.32a3.89 3.89 0 0 1-5.11-2.03c-.86-1.98.06-4.25 2.03-5.1 1.96-.85 4.25.05 5.1 2.03.85 1.97-.06 4.26-2.02 5.11M55.55 11.55a2.127 2.127 0 0 0-2.52-1.68c-1.16.22-1.91 1.35-1.68 2.52a2.16 2.16 0 0 0 2.53 1.68c1.15-.24 1.91-1.36 1.67-2.52m9.2 2a2.597 2.597 0 0 0-3.17-1.87 2.586 2.586 0 0 0-1.86 3.16 2.59 2.59 0 0 0 3.16 1.87 2.591 2.591 0 0 0 1.87-3.15m8.48 4.08a3.223 3.223 0 0 0-4.05-2.12 3.22 3.22 0 0 0-2.13 4.05 3.226 3.226 0 0 0 4.05 2.12 3.228 3.228 0 0 0 2.13-4.05M80 23.67a3.563 3.563 0 0 0-4.58-2.11 3.58 3.58 0 0 0-2.12 4.59 3.57 3.57 0 0 0 4.59 2.11c1.85-.68 2.8-2.74 2.11-4.59m-42.89-9.71c-.34-.8-1.26-1.16-2.05-.82-.8.34-1.17 1.25-.83 2.05.35.78 1.28 1.14 2.06.81.79-.34 1.17-1.26.82-2.04m38.91 51.46c-.97.68-1.19 2.02-.51 2.99.69.97 2.02 1.19 2.99.51.96-.68 1.19-2.01.5-2.99a2.143 2.143 0 0 0-2.98-.51m4.27-8.36c-1.21.77-1.58 2.38-.81 3.58a2.586 2.586 0 0 0 3.58.81 2.58 2.58 0 0 0 .8-3.58 2.603 2.603 0 0 0-3.58-.81m2.02-9.41a3.25 3.25 0 0 0-1.24 4.41c.88 1.56 2.85 2.1 4.4 1.23a3.24 3.24 0 0 0 1.25-4.4 3.245 3.245 0 0 0-4.42-1.23m-.11-9.45a3.576 3.576 0 0 0-1.62 4.78 3.552 3.552 0 0 0 4.78 1.61c1.77-.87 2.5-3 1.61-4.78a3.563 3.563 0 0 0-4.78-1.61M62.55 76.87c-.79.34-1.16 1.26-.81 2.05.34.8 1.26 1.16 2.04.82.79-.34 1.17-1.26.82-2.05s-1.26-1.16-2.05-.81M19.09 63.75a3.886 3.886 0 0 0 2.02-5.11c-.85-1.98-3.13-2.87-5.09-2.02s-2.88 3.12-2.03 5.1c.85 1.97 3.14 2.87 5.11 2.03m3.71-36.29c.97-.69 1.2-2.02.52-2.99a2.135 2.135 0 0 0-2.99-.5c-.97.68-1.2 2.01-.51 2.99.68.96 2.02 1.19 2.98.5m-4.25 8.36c1.21-.77 1.57-2.38.81-3.59a2.599 2.599 0 1 0-.81 3.59m-2.02 9.41c1.56-.87 2.1-2.85 1.23-4.41s-2.85-2.11-4.41-1.23c-1.56.87-2.11 2.84-1.24 4.41a3.245 3.245 0 0 0 4.41 1.24m.13 9.43a3.558 3.558 0 0 0 1.61-4.78 3.57 3.57 0 0 0-4.79-1.62 3.576 3.576 0 0 0-1.62 4.78 3.584 3.584 0 0 0 4.79 1.62m26.64 26.67a2.132 2.132 0 0 0 2.53 1.68 2.14 2.14 0 0 0 1.67-2.53 2.15 2.15 0 0 0-2.52-1.68c-1.16.24-1.92 1.37-1.68 2.53m-9.19-2.01c.35 1.4 1.76 2.23 3.15 1.87a2.596 2.596 0 1 0-1.29-5.03 2.586 2.586 0 0 0-1.86 3.16m-8.5-4.09a3.214 3.214 0 0 0 4.05 2.12 3.22 3.22 0 0 0 2.13-4.04c-.54-1.71-2.35-2.66-4.06-2.13s-2.66 2.35-2.13 4.05m-6.75-6.04a3.574 3.574 0 0 0 4.59 2.11 3.543 3.543 0 0 0 2.11-4.58c-.68-1.85-2.74-2.79-4.59-2.11s-2.79 2.74-2.12 4.58m51.07 3.15a1.68 1.68 0 0 0-.27 2.35c.57.73 1.62.84 2.34.27.73-.57.85-1.62.28-2.35-.58-.72-1.63-.84-2.36-.27M54.2 79.12a1.674 1.674 0 0 0 .49 3.31c.91-.14 1.56-.98 1.42-1.89-.13-.92-.98-1.55-1.91-1.42m-8.15-67.26c-.14-.91-.99-1.54-1.91-1.41-.91.13-1.54.98-1.41 1.9s.98 1.54 1.89 1.41c.91-.14 1.55-.98 1.42-1.9m-16.83 6.32a1.66 1.66 0 0 0-2.35-.27c-.72.58-.85 1.62-.28 2.35.58.73 1.64.85 2.35.28.73-.58.86-1.63.28-2.35" fill="#f4822a"/></svg>